<?xml version="1.0" encoding="UTF-8"?>
<svg version="1.1" xmlns="http://www.w3.org/2000/svg" width="200" height="216">
<path d="M0 0 C66 0 132 0 200 0 C200 71.28 200 142.56 200 216 C134 216 68 216 0 216 C0 144.72 0 73.44 0 0 Z " fill="#884810" transform="translate(0,0)"/>
<path d="M0 0 C66 0 132 0 200 0 C200 60.06 200 120.12 200 182 C199.67 182 199.34 182 199 182 C196.5146946 166.79767738 194.59316225 151.6808855 193.32659912 136.33679199 C192.43889828 125.67135941 191.03833042 115.16692225 189.27832031 104.60766602 C188.04592027 96.9881392 187.49410357 89.72897318 188 82 C187.34 82 186.68 82 186 82 C185.96559814 81.42032471 185.93119629 80.84064941 185.89575195 80.2434082 C185.72518342 77.59761261 185.51920071 74.95570819 185.3125 72.3125 C185.23225586 70.94448242 185.23225586 70.94448242 185.15039062 69.54882812 C184.78111682 65.1335979 184.45450191 62.62182297 181.79296875 58.98046875 C176.95778578 55.55188446 172.35517728 54.75300507 166.5078125 54.5859375 C165.30898437 54.54726563 164.11015625 54.50859375 162.875 54.46875 C161.6375 54.4378125 160.4 54.406875 159.125 54.375 C157.86429688 54.33632813 156.60359375 54.29765625 155.3046875 54.2578125 C152.20326863 54.16383011 149.10185114 54.07816589 146 54 C145.97494385 53.05874268 145.9498877 52.11748535 145.92407227 51.14770508 C145.49961828 38.45959593 142.38354147 27.83633711 133 19 C132.45472656 18.45859375 131.90945312 17.9171875 131.34765625 17.359375 C120.17041368 6.94481486 108.00251394 6.29945416 93.49121094 6.81201172 C88.52528321 7.18674362 84.3491228 8.64934418 80 11 C78.453125 11.8353125 78.453125 11.8353125 76.875 12.6875 C67.48022536 20.24416656 60.86317591 27.80110087 59 40 C58.56194158 44.66255288 58.26377634 49.32489643 58 54 C57.18845459 54.01458252 56.37690918 54.02916504 55.54077148 54.04418945 C51.83921807 54.11897632 48.13853621 54.21553761 44.4375 54.3125 C43.16068359 54.33505859 41.88386719 54.35761719 40.56835938 54.38085938 C31.34835538 54.56404881 31.34835538 54.56404881 23 58 C20.53893162 60.78666593 19.53617246 62.97703745 18.90234375 66.62109375 C18.74161377 67.542854 18.58088379 68.46461426 18.4152832 69.41430664 C18.25761475 70.41196045 18.09994629 71.40961426 17.9375 72.4375 C17.68262817 73.99682251 17.68262817 73.99682251 17.42260742 75.58764648 C15.72891739 86.61411335 15.02844751 97.68705509 14.39453125 108.81640625 C14.13768903 113.26634707 13.7420403 117.60583092 13 122 C12.34 122 11.68 122 11 122 C11.04125 123.051875 11.0825 124.10375 11.125 125.1875 C11.125 128.77672132 10.71479119 132.14875284 10.125 135.6875 C9.15466711 141.57099734 8.53394287 147.43999925 8 153.375 C7.43846081 159.60736436 6.80364856 165.80222583 5.9375 172 C5.01513847 178.65988603 4.36830443 185.28681479 4 192 C3.92265625 193.05445313 3.8453125 194.10890625 3.765625 195.1953125 C3.4838635 201.44102571 3.99665133 205.32889706 7.80859375 210.37890625 C9 212 9 212 10 215 C10.66 215.33 11.32 215.66 12 216 C8.04 216 4.08 216 0 216 C0 144.72 0 73.44 0 0 Z " fill="#FEFDFC" transform="translate(0,0)"/>
<path d="M0 0 C7.35142853 4.28498567 11.03650247 9.31737425 14.14453125 17.25 C15.41703724 22.14425379 15.14453125 25.9733844 15.14453125 31.25 C-4.65546875 31.25 -24.45546875 31.25 -44.85546875 31.25 C-44.85546875 18.59737403 -43.80527108 12.72436249 -35.58203125 3.90625 C-26.43835237 -4.86506187 -11.0447481 -5.27510357 0 0 Z " fill="#FDFCFA" transform="translate(116.85546875,22.75)"/>
<path d="M0 0 C0.33 0 0.66 0 1 0 C1.14695313 0.60585937 1.29390625 1.21171875 1.4453125 1.8359375 C4.1964235 12.11307629 8.92807875 21.03163075 18 27 C20.60029412 28.2162666 23.18304783 29.24683215 25.8984375 30.17578125 C28 31 28 31 30 33 C27.40629922 34.06799444 24.90142438 35.02628683 22.1875 35.75 C14.35758414 38.82055524 7.34265428 45.03095381 3.7421875 52.66796875 C2.76332664 55.09458536 1.84673784 57.52453702 1 60 C-0.485 59.505 -0.485 59.505 -2 59 C-2.37125 57.865625 -2.7425 56.73125 -3.125 55.5625 C-5.39436713 48.87510962 -10.77097398 42.93108419 -16.7890625 39.33203125 C-17.51867187 38.89246094 -18.24828125 38.45289063 -19 38 C-19 37.34 -19 36.68 -19 36 C-19.86625 35.87625 -20.7325 35.7525 -21.625 35.625 C-24.89513853 35.01941879 -27.87256899 34.11693965 -31 33 C-28.77050304 30.77050304 -27.18551121 30.20135411 -24.25 29.125 C-16.16789065 25.95486228 -9.61851741 21.56324742 -5.83984375 13.53515625 C-5.16356883 11.82518354 -4.50922451 10.10634752 -3.87890625 8.37890625 C-2.79650369 5.44920331 -1.45300914 2.76071738 0 0 Z " fill="#FCFBF8" transform="translate(133,96)"/>
<path d="M0 0 C1.125 1.625 1.125 1.625 2 4 C1.68804687 4.90234375 1.37609375 5.8046875 1.0546875 6.734375 C-0.08853725 10.27413757 -0.13864065 12.92502762 0 16.625 C0.15311363 20.73035907 0.20556212 23.46765441 -2 27 C-2.33 27 -2.66 27 -3 27 C-3.40911092 32.1737329 -3.81803811 37.34748027 -4.22680664 42.52124023 C-4.36542997 44.27547584 -4.50410054 46.02970772 -4.64282227 47.78393555 C-4.77757402 49.48803445 -4.91222848 51.19214104 -5.04678345 52.89625549 C-5.17933469 54.57331992 -5.31228764 56.25035264 -5.44564819 57.92735291 C-5.73809263 61.61622308 -6.02533322 65.30504873 -6.28564453 68.99633789 C-6.3679834 70.14739014 -6.45032227 71.29844238 -6.53515625 72.484375 C-6.60226807 73.4650293 -6.66937988 74.44568359 -6.73852539 75.45605469 C-7.08693904 78.84584952 -7.90327948 81.77838347 -9 85 C-9.2784375 86.175625 -9.2784375 86.175625 -9.5625 87.375 C-10 89 -10 89 -11 90 C-11.23075082 91.34747084 -11.41153063 92.70377565 -11.5625 94.0625 C-11.706875 95.361875 -11.85125 96.66125 -12 98 C-12.33 98 -12.66 98 -13 98 C-13.54072832 86.08394997 -11.89446549 74.73292188 -10 63 C-9.34 63 -8.68 63 -8 63 C-7.98018066 62.44352783 -7.96036133 61.88705566 -7.93994141 61.3137207 C-7.30829935 44.24717111 -6.37695415 27.2311871 -3.5 10.375 C-3.38156738 9.67012451 -3.26313477 8.96524902 -3.14111328 8.23901367 C-2.52847157 4.89275965 -1.91815535 2.87723303 0 0 Z " fill="#83522A" transform="translate(21,59)"/>
<path d="M0 0 C1.32 0.33 2.64 0.66 4 1 C3.21625 2.03125 2.4325 3.0625 1.625 4.125 C-3.49204793 11.39583364 -3.21246548 16.54958576 -4 26 C15.8 26 35.6 26 56 26 C55.34 20.39 54.68 14.78 54 9 C54.99 9 55.98 9 57 9 C58.2062252 12.61867559 58.10816918 15.92506251 58.0625 19.6875 C58.05798828 20.38939453 58.05347656 21.09128906 58.04882812 21.81445312 C58.03706927 23.54300538 58.01913454 25.27151365 58 27 C55.40147487 28.29926256 53.42199928 28.18234758 50.51220703 28.25292969 C48.78999435 28.29737213 48.78999435 28.29737213 47.0329895 28.3427124 C45.78718109 28.36883606 44.54137268 28.39495972 43.2578125 28.421875 C41.98275848 28.44977112 40.70770447 28.47766724 39.39401245 28.50640869 C36.69221369 28.5628825 33.99047697 28.61682881 31.28857422 28.66748047 C27.82919197 28.73338217 24.37053673 28.8180003 20.91168404 28.9070549 C17.61065725 28.98790076 14.30923468 29.04714739 11.0078125 29.109375 C9.14517258 29.16070587 9.14517258 29.16070587 7.24490356 29.21307373 C5.51323441 29.23860321 5.51323441 29.23860321 3.74658203 29.26464844 C2.22340866 29.29676422 2.22340866 29.29676422 0.66946411 29.32952881 C-2.44471715 28.94510242 -3.77752879 28.18561957 -6 26 C-7.90914211 18.82083019 -7.4494343 12.24735072 -4.203125 5.609375 C-3 4 -3 4 0 3 C0 2.01 0 1.02 0 0 Z " fill="#6E411D" transform="translate(76,28)"/>
<path d="M0 0 C0 0.66 0 1.32 0 2 C-2.63892176 3.78305524 -4.97178863 4.99059621 -8 6 C-8.33 6.66 -8.66 7.32 -9 8 C-11.97 8 -14.94 8 -18 8 C-18.66 9.32 -19.32 10.64 -20 12 C-23.42857143 15 -23.42857143 15 -26 15 C-26.0825 15.515625 -26.165 16.03125 -26.25 16.5625 C-27.09375018 19.30468807 -28.44846183 21.55810068 -29.87890625 24.03125 C-34.37378566 31.92469677 -35.55750135 37.84768624 -35 47 C-36.485 47.495 -36.485 47.495 -38 48 C-38.5369668 34.19796451 -36.88116818 24.1006157 -27.83984375 13.45703125 C-20.31925637 5.38819186 -11.31213628 -0.31422601 0 0 Z " fill="#85542A" transform="translate(96,6)"/>
<path d="M0 0 C0.33 0 0.66 0 1 0 C2.58519004 8.46396014 3.51334964 16.88907276 4.20492554 25.46878052 C5.23867314 38.19483865 6.66315082 50.76479323 8.72998047 63.37133789 C9.63894933 69.00384105 10.19867018 74.29337046 10 80 C9.67 80 9.34 80 9 80 C8.87625 78.989375 8.7525 77.97875 8.625 76.9375 C8.11161615 73.08410164 8.11161615 73.08410164 7 69.8125 C6.14241474 66.54295621 5.78176403 63.8426577 5.5625 60.5 C5.24043776 55.79203558 4.50657941 51.35984192 3.5 46.75 C2.21423979 40.68767168 1.61809599 34.87508876 1.34814453 28.70898438 C1.16217497 24.78146146 0.7081132 21.09004493 -0.125 17.25 C-1.33600248 11.3997895 -0.75998925 5.88478159 0 0 Z " fill="#794A21" transform="translate(190,110)"/>
<path d="M0 0 C-1.3522779 4.05683369 -3.40841765 4.78979548 -7 7 C-8.3303125 7.86625 -8.3303125 7.86625 -9.6875 8.75 C-12 10 -12 10 -15 10 C-16.10420182 12.12953208 -17.0523375 14.15701249 -17.8125 16.4375 C-19 19 -19 19 -21.5625 21.4375 C-24.35042456 24.36839505 -24.72342421 26.03574701 -25 30 C-25.99 30 -26.98 30 -28 30 C-28 28.68 -28 27.36 -28 26 C-27.34 26 -26.68 26 -26 26 C-25.95875 25.195625 -25.9175 24.39125 -25.875 23.5625 C-23.4296501 13.60643255 -15.25823676 6.50549118 -7 1 C-4.605208 0.41590439 -2.46475374 0 0 0 Z " fill="#87562D" transform="translate(160,130)"/>
<path d="M0 0 C4.62 0 9.24 0 14 0 C14.33 2.31 14.66 4.62 15 7 C14.34 7 13.68 7 13 7 C12.71125 6.360625 12.4225 5.72125 12.125 5.0625 C11.17176549 2.84793921 11.17176549 2.84793921 9 2 C9 6.29 9 10.58 9 15 C9.99 15 10.98 15 12 15 C12 15.66 12 16.32 12 17 C8.37 17 4.74 17 1 17 C2.32 16.67 3.64 16.34 5 16 C5 11.38 5 6.76 5 2 C2.03 4.475 2.03 4.475 -1 7 C-0.67 4.69 -0.34 2.38 0 0 Z " fill="#E3C8AE" transform="translate(26,191)"/>
<path d="M0 0 C0.33 0 0.66 0 1 0 C1.91657981 5.38490641 2.11138159 10.54230189 2 16 C1.67 16 1.34 16 1 16 C0.19423531 23.2034375 -0.26763594 30.38391198 -0.5625 37.625 C-0.60568359 38.62917969 -0.64886719 39.63335937 -0.69335938 40.66796875 C-0.79809859 43.11188383 -0.90027256 45.55587617 -1 48 C-1.66 48 -2.32 48 -3 48 C-8.75752712 36.48494576 -1.92610151 12.37622672 0 0 Z " fill="#977253" transform="translate(7,158)"/>
<path d="M0 0 C0.66 0 1.32 0 2 0 C2.99 4.62 3.98 9.24 5 14 C6.98644531 14.02578125 8.97289062 14.0515625 11.01953125 14.078125 C12.94575042 14.11984816 14.87196938 14.16170998 16.7980957 14.20751953 C18.79289131 14.24958649 20.78808082 14.27137864 22.78320312 14.29296875 C24.03681641 14.32519531 25.29042969 14.35742188 26.58203125 14.390625 C27.73936768 14.41157227 28.8967041 14.43251953 30.08911133 14.45410156 C33 15 33 15 34.90112305 17.03808594 C35.26375244 17.68551758 35.62638184 18.33294922 36 19 C35.67 19.66 35.34 20.32 35 21 C33.69869141 20.27876953 33.69869141 20.27876953 32.37109375 19.54296875 C26.56852716 17.0561545 20.27399546 17.42650228 14.0625 17.3125 C12.80630859 17.27833984 11.55011719 17.24417969 10.25585938 17.20898438 C7.17087911 17.12687463 4.08545491 17.06175169 1 17 C0.67 11.39 0.34 5.78 0 0 Z " fill="#EDDECF" transform="translate(145,37)"/>
<path d="M0 0 C0.33 0 0.66 0 1 0 C1.01417969 0.7734375 1.02835937 1.546875 1.04296875 2.34375 C1.33623901 8.74813832 1.9950301 13.1764215 5.84375 18.37890625 C7 20 7 20 8 23 C8.66 23.33 9.32 23.66 10 24 C6.04 24 2.08 24 -2 24 C-2.02684679 21.35409986 -2.04676357 18.70846904 -2.0625 16.0625 C-2.07087891 15.30775391 -2.07925781 14.55300781 -2.08789062 13.77539062 C-2.09652441 11.85005687 -2.05224333 9.92464419 -2 8 C-1.67 7.67 -1.34 7.34 -1 7 C-0.63239269 4.67182036 -0.29758419 2.3381615 0 0 Z " fill="#FAF5EE" transform="translate(2,192)"/>
<path d="M0 0 C0.33 0.99 0.66 1.98 1 3 C0.01 4.485 0.01 4.485 -1 6 C-1.66 6 -2.32 6 -3 6 C-3.2165625 7.9490625 -3.2165625 7.9490625 -3.4375 9.9375 C-3.875 13.875 -3.875 13.875 -5 15 C-5.33 17.97 -5.66 20.94 -6 24 C13.14 24 32.28 24 52 24 C52 21.69 52 19.38 52 17 C52.33 17 52.66 17 53 17 C53 19.64 53 22.28 53 25 C33.2 25 13.4 25 -7 25 C-7 14.56761394 -6.72977601 7.73924241 0 0 Z " fill="#D8C2AD" transform="translate(79,29)"/>
<path d="M0 0 C0.66 0.33 1.32 0.66 2 1 C2.73075648 3.3140622 3.40138258 5.64828869 4 8 C4.33 5.69 4.66 3.38 5 1 C6.32 1 7.64 1 9 1 C8.50835101 6.06244816 6.73158911 9.62438173 4 13.8125 C3.63132812 14.39708984 3.26265625 14.98167969 2.8828125 15.58398438 C0.21552579 19.78447421 0.21552579 19.78447421 -1 21 C-2.66617115 21.04063832 -4.33388095 21.042721 -6 21 C-6 20.34 -6 19.68 -6 19 C-4.02 18.67 -2.04 18.34 0 18 C0.33266291 11.79029227 -0.54970669 7.71735105 -3 2 C-2.01 1.34 -1.02 0.68 0 0 Z " fill="#F6EADB" transform="translate(90,195)"/>
<path d="M0 0 C0.33 0 0.66 0 1 0 C1 4.29 1 8.58 1 13 C-0.95164063 13.06058594 -2.90328125 13.12117188 -4.9140625 13.18359375 C-7.48438187 13.2680203 -10.05469401 13.35266724 -12.625 13.4375 C-14.55279297 13.49647461 -14.55279297 13.49647461 -16.51953125 13.55664062 C-18.38544922 13.61948242 -18.38544922 13.61948242 -20.2890625 13.68359375 C-21.43068848 13.72025146 -22.57231445 13.75690918 -23.74853516 13.79467773 C-26.8933928 13.99326801 -29.9041491 14.4238847 -33 15 C-32.67 14.01 -32.34 13.02 -32 12 C-28.6978772 10.8992924 -26.05916721 10.79372928 -22.58203125 10.68359375 C-20.70161133 10.62075195 -20.70161133 10.62075195 -18.78320312 10.55664062 C-17.47287109 10.51732422 -16.16253906 10.47800781 -14.8125 10.4375 C-13.47720022 10.39429008 -12.14191348 10.350675 -10.80664062 10.30664062 C-7.53786703 10.20043498 -4.26901667 10.09839003 -1 10 C-1.020625 8.906875 -1.04125 7.81375 -1.0625 6.6875 C-1 3 -1 3 0 0 Z " fill="#ECDDCC" transform="translate(57,41)"/>
<path d="M0 0 C3.26460973 1.80412643 4.88929795 2.83394693 7 6 C8.02139413 10.48385601 8.10576767 14.78862675 8.0625 19.375 C8.05347656 20.62023437 8.04445312 21.86546875 8.03515625 23.1484375 C8.02355469 24.08945313 8.01195312 25.03046875 8 26 C8.66 26 9.32 26 10 26 C10.66 34.91 11.32 43.82 12 53 C9.51095532 50.51095532 9.64471887 49.44150596 9.3671875 45.9921875 C9.28339844 45.00605469 9.19960937 44.01992187 9.11328125 43.00390625 C9.03464844 41.97136719 8.95601562 40.93882813 8.875 39.875 C8.78863281 38.83472656 8.70226562 37.79445312 8.61328125 36.72265625 C8.40077621 34.14898411 8.19670844 31.57491983 8 29 C7.67 29 7.34 29 7 29 C5.68 20.75 4.36 12.5 3 4 C2.34 4 1.68 4 1 4 C0.67 2.68 0.34 1.36 0 0 Z " fill="#916A48" transform="translate(178,56)"/>
<path d="M0 0 C1.47049805 -0.01740234 1.47049805 -0.01740234 2.97070312 -0.03515625 C12.26765851 0.00271322 12.26765851 0.00271322 15.9375 3.375 C16.75 5.5625 16.75 5.5625 16.9375 7.375 C16.31746094 7.08625 15.69742188 6.7975 15.05859375 6.5 C4.67255547 2.14602762 -6.34971193 1.87694675 -17.0625 5.375 C-17.0625 4.715 -17.0625 4.055 -17.0625 3.375 C-11.45754305 -0.20989632 -6.42690655 -0.07635929 0 0 Z " fill="#865B38" transform="translate(103.0625,17.625)"/>
<path d="M0 0 C0.33 2.97 0.66 5.94 1 9 C1.66 9 2.32 9 3 9 C3 9.66 3 10.32 3 11 C1.02 11.66 -0.96 12.32 -3 13 C-3 10.03 -3 7.06 -3 4 C-3.99 4.33 -4.98 4.66 -6 5 C-6.33 7.64 -6.66 10.28 -7 13 C-7.99 13 -8.98 13 -10 13 C-10.33 9.37 -10.66 5.74 -11 2 C-9.68 1.67 -8.36 1.34 -7 1 C-7 1.66 -7 2.32 -7 3 C-6.030625 2.505 -5.06125 2.01 -4.0625 1.5 C-1 0 -1 0 0 0 Z " fill="#F5E7D4" transform="translate(73,195)"/>
<path d="M0 0 C0.66 0 1.32 0 2 0 C2 3.96 2 7.92 2 12 C-2.62 12 -7.24 12 -12 12 C-11.67 11.01 -11.34 10.02 -11 9 C-8.66666667 8.33333333 -6.33333333 7.66666667 -4 7 C-3.67 6.01 -3.34 5.02 -3 4 C-2.34 3.67 -1.68 3.34 -1 3 C-0.67 2.01 -0.34 1.02 0 0 Z " fill="#83552F" transform="translate(198,204)"/>
<path d="M0 0 C6.05251026 3.10860221 10.91968787 5.84867533 14.6953125 11.58203125 C14.0353125 12.24203125 13.3753125 12.90203125 12.6953125 13.58203125 C12.6953125 12.92203125 12.6953125 12.26203125 12.6953125 11.58203125 C11.3753125 10.92203125 10.0553125 10.26203125 8.6953125 9.58203125 C8.6953125 8.92203125 8.6953125 8.26203125 8.6953125 7.58203125 C7.9321875 7.45828125 7.1690625 7.33453125 6.3828125 7.20703125 C3.6953125 6.58203125 3.6953125 6.58203125 0.6953125 4.58203125 C0.6953125 3.92203125 0.6953125 3.26203125 0.6953125 2.58203125 C-0.9546875 2.58203125 -2.6046875 2.58203125 -4.3046875 2.58203125 C-4.3046875 1.92203125 -4.3046875 1.26203125 -4.3046875 0.58203125 C-5.3771875 0.62328125 -6.4496875 0.66453125 -7.5546875 0.70703125 C-10.96216235 0.59344875 -12.51208381 0.36929761 -15.3046875 -1.41796875 C-9.78379525 -3.25826617 -5.20946161 -2.23526544 0 0 Z " fill="#855731" transform="translate(119.3046875,8.41796875)"/>
<path d="M0 0 C1.32 0.33 2.64 0.66 4 1 C2.14453125 3.44140625 2.14453125 3.44140625 0.2890625 5.8828125 C-2.60629068 10.63821075 -3.28931078 15.39207601 -3.625 20.875 C-3.69976562 22.02742188 -3.77453125 23.17984375 -3.8515625 24.3671875 C-3.90054688 25.23601563 -3.94953125 26.10484375 -4 27 C-4.66 26.67 -5.32 26.34 -6 26 C-7.55015128 18.66407281 -7.50815025 12.36741171 -4.203125 5.609375 C-3 4 -3 4 0 3 C0 2.01 0 1.02 0 0 Z " fill="#7E4B21" transform="translate(76,28)"/>
<path d="M0 0 C5.94 1.485 5.94 1.485 12 3 C12 3.66 12 4.32 12 5 C12.73605469 5.2475 13.47210938 5.495 14.23046875 5.75 C17.26353941 7.11894585 18.99790209 8.62873585 21.3125 11 C22.00988281 11.70125 22.70726563 12.4025 23.42578125 13.125 C25 15 25 15 25 17 C21.01636642 15.67212214 18.89369166 13.99014805 16 11 C15.01 10.67 14.02 10.34 13 10 C12.55011719 9.35546875 12.10023437 8.7109375 11.63671875 8.046875 C9.56404915 5.45480132 7.98918254 5.07511235 4.8125 4.25 C3.91144531 4.00765625 3.01039062 3.7653125 2.08203125 3.515625 C1.39496094 3.34546875 0.70789063 3.1753125 0 3 C0 2.01 0 1.02 0 0 Z " fill="#855931" transform="translate(102,129)"/>
<path d="M0 0 C0 0.66 0 1.32 0 2 C0.928125 1.773125 1.85625 1.54625 2.8125 1.3125 C6 1 6 1 7.875 2.3125 C9 4 9 4 9 6 C8.4028418 5.78633789 7.80568359 5.57267578 7.19042969 5.35253906 C0.72164504 3.20296619 -4.96307433 2.59284977 -11.75 2.75 C-13.10931641 2.75773438 -13.10931641 2.75773438 -14.49609375 2.765625 C-19.09756256 2.81936478 -23.47517295 3.071062 -28 4 C-27.67 3.34 -27.34 2.68 -27 2 C-25.68 2 -24.36 2 -23 2 C-23 1.34 -23 0.68 -23 0 C-15.15597666 -0.72526532 -7.80255144 -1.21074074 0 0 Z " fill="#FAEEE2" transform="translate(113,4)"/>
<path d="M0 0 C0.33 0 0.66 0 1 0 C2.41512851 7.40684284 3.36574858 14.81368655 4.125 22.3125 C4.21249512 23.15973633 4.29999023 24.00697266 4.39013672 24.87988281 C4.8526448 29.61291323 5.08984137 34.24482472 5 39 C4.67 39 4.34 39 4 39 C2.75731496 33.67937765 1.74705003 28.41611269 1 23 C0.82210937 22.18917969 0.64421875 21.37835938 0.4609375 20.54296875 C-1.06074309 13.45193719 -0.92707251 7.17854798 0 0 Z " fill="#8A603F" transform="translate(190,110)"/>
<path d="M0 0 C-0.49831724 3.68754757 -1.10067643 5.60490662 -4 8 C-2.35 8.33 -0.7 8.66 1 9 C-0.1875 10.5 -0.1875 10.5 -2 12 C-4.625 12.25 -4.625 12.25 -7 12 C-8 11 -8 11 -8.25 7.125 C-8.20764899 4.49923745 -8.16919812 3.28496525 -6.8125 1 C-4.44004321 -0.30894168 -2.6664882 -0.21620175 0 0 Z " fill="#F7EAD8" transform="translate(60,196)"/>
<path d="M0 0 C2.97 0 5.94 0 9 0 C6.03 3.96 6.03 3.96 3 8 C4.98 8 6.96 8 9 8 C8.67 9.32 8.34 10.64 8 12 C4.7 12 1.4 12 -2 12 C-0.21844267 8.43688534 1.16763009 6.64354525 4 4 C2.02 4 0.04 4 -2 4 C-1.34 2.68 -0.68 1.36 0 0 Z " fill="#E7C6A9" transform="translate(78,196)"/>
<path d="M0 0 C0.33 0 0.66 0 1 0 C1.07347656 1.28970703 1.07347656 1.28970703 1.1484375 2.60546875 C1.53110304 8.65554291 2.03226994 14.58570436 3.0625 20.5625 C4.14440009 27.06992869 4.19388504 33.41868014 4 40 C3.67 40 3.34 40 3 40 C2.31967447 35.7312287 1.65829108 31.45972013 1 27.1875 C0.80921875 25.99189453 0.6184375 24.79628906 0.421875 23.56445312 C-2.43169363 4.86338727 -2.43169363 4.86338727 0 0 Z " fill="#E2CEB9" transform="translate(196,142)"/>
<path d="M0 0 C5.63783213 4.97526639 8.49363243 12.43644038 9.31640625 19.8515625 C9.3125 22.3125 9.3125 22.3125 9 26 C8.67 26 8.34 26 8 26 C7.67 24.35 7.34 22.7 7 21 C6.67 21 6.34 21 6 21 C5.7525 20.05125 5.505 19.1025 5.25 18.125 C4.10417657 14.04819345 2.48064122 10.21608459 0.8046875 6.33203125 C0 4 0 4 0 0 Z " fill="#875A34" transform="translate(137,23)"/>
<path d="M0 0 C0 3.81633363 -1.08924361 5.70559244 -3 9 C-3.86625 9.825 -4.7325 10.65 -5.625 11.5 C-8.36887184 14.38828615 -8.72739925 16.09272255 -9 20 C-9.99 20 -10.98 20 -12 20 C-12 18.68 -12 17.36 -12 16 C-11.34 16 -10.68 16 -10 16 C-9.95875 15.195625 -9.9175 14.39125 -9.875 13.5625 C-8.67852739 8.69114722 -6.23547845 4.82301558 -3 1 C-2.01 0.67 -1.02 0.34 0 0 Z " fill="#84542C" transform="translate(144,140)"/>
<path d="M0 0 C0.33 0 0.66 0 1 0 C1 8.58 1 17.16 1 26 C0.34 26.33 -0.32 26.66 -1 27 C-1.46523063 28.89533342 -1.46523063 28.89533342 -1.625 31.0625 C-1.810625 33.0115625 -1.810625 33.0115625 -2 35 C-2.33 35 -2.66 35 -3 35 C-3.54072832 23.08394997 -1.89446549 11.73292188 0 0 Z " fill="#AB8A6E" transform="translate(11,122)"/>
<path d="M0 0 C0.99 0.33 1.98 0.66 3 1 C3 4.63 3 8.26 3 12 C0.36 12.33 -2.28 12.66 -5 13 C-3.68 12.01 -2.36 11.02 -1 10 C-2.32 9.34 -3.64 8.68 -5 8 C-4.0409375 7.13375 -4.0409375 7.13375 -3.0625 6.25 C-1.01776132 4.01937599 -0.41794801 2.92563609 0 0 Z " fill="#88572C" transform="translate(60,196)"/>
<path d="M0 0 C3.3907519 1.45317939 5.41300312 3.41300312 8 6 C8.99 6.33 9.98 6.66 11 7 C11 7.99 11 8.98 11 10 C12.65 10.33 14.3 10.66 16 11 C15.34 12.32 14.68 13.64 14 15 C8.649526 11.29269187 3.69908959 7.43654076 0 2 C0 1.34 0 0.68 0 0 Z " fill="#825632" transform="translate(139,110)"/>
<path d="M0 0 C3.67230705 3.07999946 4.56802365 5.2482602 5 10 C4.01 10 3.02 10 2 10 C1.34 9.34 0.68 8.68 0 8 C-3.08347826 7.83318891 -3.08347826 7.83318891 -6 8 C-4.02 5.36 -2.04 2.72 0 0 Z " fill="#95663E" transform="translate(86,197)"/>
<path d="M0 0 C0.66 0.66 1.32 1.32 2 2 C-5.20133018 8.9854865 -12.35049883 12.53629757 -22 15 C-19.77026551 11.65539826 -18.8217124 11.25894295 -15.1875 9.875 C-13.90939453 9.37613281 -13.90939453 9.37613281 -12.60546875 8.8671875 C-10.07996888 8.02661633 -7.61885577 7.46076816 -5 7 C-5 6.01 -5 5.02 -5 4 C-4.01 4 -3.02 4 -2 4 C-2 3.34 -2 2.68 -2 2 C-1.34 2 -0.68 2 0 2 C0 1.34 0 0.68 0 0 Z " fill="#885C36" transform="translate(122,114)"/>
<path d="M0 0 C4.75 0.75 4.75 0.75 7 3 C4.40629922 4.06799444 1.90142438 5.02628683 -0.8125 5.75 C-4.50990054 7.199961 -7.17164152 9.20775462 -10.265625 11.66015625 C-12 13 -12 13 -14 14 C-13.42655063 11.13275314 -13.1385485 10.1385485 -11 8 C-10.01 8 -9.02 8 -8 8 C-7.67 7.01 -7.34 6.02 -7 5 C-3.3962102 3.47839986 -0.94779314 3 3 3 C3 2.34 3 1.68 3 1 C2.01 0.67 1.02 0.34 0 0 Z " fill="#EDDBC8" transform="translate(156,126)"/>
<path d="M0 0 C0.66 0 1.32 0 2 0 C2.09038099 5.15171623 1.84681133 9.91913204 1 15 C0.34 15 -0.32 15 -1 15 C-1 17.64 -1 20.28 -1 23 C-1.33 23 -1.66 23 -2 23 C-2.1031366 15.58562466 -2.10153363 8.3435575 -1 1 C-0.67 0.67 -0.34 0.34 0 0 Z " fill="#E5D4C2" transform="translate(12,107)"/>
<path d="M0 0 C0.33 0 0.66 0 1 0 C1.05534912 0.68626465 1.11069824 1.3725293 1.16772461 2.07958984 C1.42005303 5.17842435 1.67869649 8.27669984 1.9375 11.375 C2.02451172 12.45523438 2.11152344 13.53546875 2.20117188 14.6484375 C2.28818359 15.6796875 2.37519531 16.7109375 2.46484375 17.7734375 C2.543396 18.72653809 2.62194824 19.67963867 2.70288086 20.66162109 C2.87128174 23.01831795 2.87128174 23.01831795 4 25 C4.06950541 26.54023996 4.08452357 28.08334988 4.0625 29.625 C4.05347656 30.44226563 4.04445312 31.25953125 4.03515625 32.1015625 C4.02355469 32.72804687 4.01195312 33.35453125 4 34 C3.34 34 2.68 34 2 34 C0.52226006 22.60029192 -0.28189885 11.49520875 0 0 Z " fill="#7B481D" transform="translate(186,84)"/>
<path d="M0 0 C0.99 0.495 0.99 0.495 2 1 C4.50514564 11.14429345 4.22587465 21.63486322 4 32 C3.67 32 3.34 32 3 32 C3 27.38 3 22.76 3 18 C2.34 18 1.68 18 1 18 C0.67 12.06 0.34 6.12 0 0 Z " fill="#EBDBCB" transform="translate(185,64)"/>
<path d="M0 0 C1.25039063 0.04833984 2.50078125 0.09667969 3.7890625 0.14648438 C5.09101562 0.20255859 6.39296875 0.25863281 7.734375 0.31640625 C9.71050781 0.3947168 9.71050781 0.3947168 11.7265625 0.47460938 C14.97940928 0.60425182 18.23194667 0.73921781 21.484375 0.87890625 C21.484375 1.20890625 21.484375 1.53890625 21.484375 1.87890625 C20.65711914 1.89872559 19.82986328 1.91854492 18.97753906 1.93896484 C15.22949694 2.03421837 11.48201183 2.14389734 7.734375 2.25390625 C6.43242188 2.28484375 5.13046875 2.31578125 3.7890625 2.34765625 C2.53867187 2.38632812 1.28828125 2.425 0 2.46484375 C-1.15209961 2.49626465 -2.30419922 2.52768555 -3.49121094 2.56005859 C-6.39971195 2.86668616 -7.99912475 3.49872991 -10.515625 4.87890625 C-12.765625 4.50390625 -12.765625 4.50390625 -14.515625 3.87890625 C-9.68883505 -0.08595692 -6.16860574 -0.25235205 0 0 Z " fill="#7F4D25" transform="translate(36.515625,54.12109375)"/>
<path d="M0 0 C-0.33 0.99 -0.66 1.98 -1 3 C-1.99 3 -2.98 3 -4 3 C-4.33 5.64 -4.66 8.28 -5 11 C-5.99 11.33 -6.98 11.66 -8 12 C-8 8.7 -8 5.4 -8 2 C-8.66 1.67 -9.32 1.34 -10 1 C-6.42181037 -1.33958553 -4.07775191 -0.9267618 0 0 Z " fill="#FEF6E8" transform="translate(52,196)"/>
<path d="M0 0 C0.66 0 1.32 0 2 0 C2 4.62 2 9.24 2 14 C2.99 14.33 3.98 14.66 5 15 C1.7 15 -1.6 15 -5 15 C-3.68 14.67 -2.36 14.34 -1 14 C-0.67 9.38 -0.34 4.76 0 0 Z " fill="#FEFAEC" transform="translate(32,193)"/>
<path d="M0 0 C0.33 0 0.66 0 1 0 C1 1.98 1 3.96 1 6 C1.556875 5.67 2.11375 5.34 2.6875 5 C5.30284522 3.8690399 7.1806646 3.84337026 10 4 C8.02 6.31 6.04 8.62 4 11 C3.67 10.34 3.34 9.68 3 9 C2.01 9.33 1.02 9.66 0 10 C0 6.7 0 3.4 0 0 Z " fill="#825024" transform="translate(73,195)"/>
<path d="M0 0 C2 3 2 3 2.375 5.5625 C2.684375 6.7690625 2.684375 6.7690625 3 8 C4.93330603 9.09166275 4.93330603 9.09166275 7 10 C8.25 12.125 8.25 12.125 9 14 C6.2474939 13.92135697 4.53433663 13.51036902 2.51953125 11.5859375 C-0.03131076 8.34200956 -1.0433431 6.79462351 -0.8125 2.5625 C-0.544375 1.716875 -0.27625 0.87125 0 0 Z " fill="#84542B" transform="translate(6,202)"/>
<path d="M0 0 C2.29010626 3.59873841 2.14114105 6.37589874 1.8125 10.5625 C1.73644531 11.69816406 1.66039062 12.83382812 1.58203125 14.00390625 C0.97824248 17.11200013 0.47621634 18.12448304 -2 20 C-1.85879984 17.41633755 -1.71221667 14.83317115 -1.5625 12.25 C-1.52318359 11.52039063 -1.48386719 10.79078125 -1.44335938 10.0390625 C-1.23852902 6.5727027 -0.9147998 3.34666974 0 0 Z " fill="#7D4820" transform="translate(10,145)"/>
<path d="M0 0 C0.33 0 0.66 0 1 0 C1 3.3 1 6.6 1 10 C-1.64 10 -4.28 10 -7 10 C-6.57847656 9.44570312 -6.15695313 8.89140625 -5.72265625 8.3203125 C-5.17480469 7.59585938 -4.62695312 6.87140625 -4.0625 6.125 C-3.51722656 5.40570313 -2.97195312 4.68640625 -2.41015625 3.9453125 C-0.96035376 2.05642921 -0.96035376 2.05642921 0 0 Z " fill="#FAF5E9" transform="translate(199,206)"/>
<path d="M0 0 C0.66 0 1.32 0 2 0 C2 5.28 2 10.56 2 16 C1.34 16 0.68 16 0 16 C0 17.65 0 19.3 0 21 C-0.33 21 -0.66 21 -1 21 C-0.67 14.07 -0.34 7.14 0 0 Z " fill="#956D4D" transform="translate(15,86)"/>
<path d="M0 0 C0.33 0.99 0.66 1.98 1 3 C0.01 4.485 0.01 4.485 -1 6 C-1.24219315 8.97449608 -1.24219315 8.97449608 -1.125 12.1875 C-1.10695312 13.27417969 -1.08890625 14.36085938 -1.0703125 15.48046875 C-1.04710937 16.31191406 -1.02390625 17.14335938 -1 18 C-1.99 18.33 -2.98 18.66 -4 19 C-4 14.38 -4 9.76 -4 5 C-3.34 5 -2.68 5 -2 5 C-2 4.01 -2 3.02 -2 2 C-1.34 2 -0.68 2 0 2 C0 1.34 0 0.68 0 0 Z " fill="#80542E" transform="translate(62,35)"/>
<path d="M0 0 C0.33 0 0.66 0 1 0 C3.29612756 14.59681093 3.29612756 14.59681093 3 22 C2.67 22 2.34 22 2 22 C1.87625 20.989375 1.7525 19.97875 1.625 18.9375 C1.09277538 15.02481569 1.09277538 15.02481569 -0.0625 11.4375 C-1.15175873 7.44355134 -1.90448651 3.80897302 0 0 Z " fill="#8E623A" transform="translate(197,168)"/>
<path d="M0 0 C0.99 0 1.98 0 3 0 C4.86128204 5.58384613 4.13770571 11.31147144 3 17 C2.67 17 2.34 17 2 17 C1.34 11.39 0.68 5.78 0 0 Z " fill="#895E37" transform="translate(130,37)"/>
<path d="M0 0 C4.10403363 -0.08694042 8.20783129 -0.14037149 12.3125 -0.1875 C13.47974609 -0.21263672 14.64699219 -0.23777344 15.84960938 -0.26367188 C16.96787109 -0.27333984 18.08613281 -0.28300781 19.23828125 -0.29296875 C20.26993408 -0.3086792 21.30158691 -0.32438965 22.36450195 -0.34057617 C25 0 25 0 26.86010742 1.39331055 C28 3 28 3 28 5 C27.48695312 4.79503906 26.97390625 4.59007812 26.4453125 4.37890625 C17.81400657 1.34196527 9.05390453 1.28601659 0 1 C0 0.67 0 0.34 0 0 Z " fill="#E1CEBB" transform="translate(94,5)"/>
<path d="M0 0 C0.33 0 0.66 0 1 0 C1.33921452 3.18690233 1.67029417 6.37460104 2 9.5625 C2.14308594 10.90538086 2.14308594 10.90538086 2.2890625 12.27539062 C2.79567965 17.21490788 3.10897382 22.03488014 3 27 C2.67 27 2.34 27 2 27 C1.86722656 26.39671875 1.73445312 25.7934375 1.59765625 25.171875 C1.42105469 24.37265625 1.24445313 23.5734375 1.0625 22.75 C0.88847656 21.96109375 0.71445313 21.1721875 0.53515625 20.359375 C0.05218753 18.06897161 0.05218753 18.06897161 -0.59375 16.15625 C-1.19500874 12.96495362 -0.83143135 9.97717624 -0.5625 6.75 C-0.46066406 5.48671875 -0.35882813 4.2234375 -0.25390625 2.921875 C-0.17011719 1.95765625 -0.08632812 0.9934375 0 0 Z " fill="#956F52" transform="translate(192,122)"/>
<path d="M0 0 C0.33 1.32 0.66 2.64 1 4 C0.34 4 -0.32 4 -1 4 C-1.04125 4.7425 -1.0825 5.485 -1.125 6.25 C-2.36824872 10.15735313 -4.44364995 11.15069797 -8 13 C-8.99 12.67 -9.98 12.34 -11 12 C-10.45730469 11.55269531 -9.91460937 11.10539062 -9.35546875 10.64453125 C-5.51120516 7.39595535 -2.23667322 4.61313852 0 0 Z " fill="#EFE1D1" transform="translate(127,110)"/>
<path d="M0 0 C0.73605469 0.06123047 1.47210938 0.12246094 2.23046875 0.18554688 C4.030013 0.33745645 5.82776611 0.51033799 7.625 0.6875 C7.625 1.0175 7.625 1.3475 7.625 1.6875 C6.24828125 1.76097656 6.24828125 1.76097656 4.84375 1.8359375 C-1.80364086 2.2409256 -7.98887859 2.77166358 -14.375 4.6875 C-14.375 4.0275 -14.375 3.3675 -14.375 2.6875 C-9.25382604 -0.45467141 -5.74476902 -0.58694295 0 0 Z " fill="#957050" transform="translate(100.375,18.3125)"/>
<path d="M0 0 C0.33 0.99 0.66 1.98 1 3 C0 4 0 4 -2.28515625 4.09765625 C-3.65994141 4.08025391 -3.65994141 4.08025391 -5.0625 4.0625 C-5.98160156 4.05347656 -6.90070313 4.04445312 -7.84765625 4.03515625 C-8.55792969 4.02355469 -9.26820312 4.01195312 -10 4 C-9.67 3.01 -9.34 2.02 -9 1 C-4.545 0.505 -4.545 0.505 0 0 Z " fill="#FAEDDC" transform="translate(86,204)"/>
<path d="M0 0 C0.99 0.33 1.98 0.66 3 1 C2.5020163 4.73487777 2.12508244 6.81237635 0 10 C-0.99 10 -1.98 10 -3 10 C-2.69201674 8.51988629 -2.378482 7.04092675 -2.0625 5.5625 C-1.88847656 4.73878906 -1.71445313 3.91507813 -1.53515625 3.06640625 C-1 1 -1 1 0 0 Z " fill="#E4CEB6" transform="translate(96,195)"/>
<path d="M0 0 C6.75 0.875 6.75 0.875 9 2 C9 2.66 9 3.32 9 4 C9.99 4.33 10.98 4.66 12 5 C11.67 6.32 11.34 7.64 11 9 C10.54109375 8.60167969 10.0821875 8.20335937 9.609375 7.79296875 C6.47728415 5.08857938 3.36122541 2.42008229 0 0 Z " fill="#ECDDCC" transform="translate(122,10)"/>
<path d="M0 0 C1.65 0 3.3 0 5 0 C4.75 2.375 4.75 2.375 4 5 C1.9375 6.3125 1.9375 6.3125 0 7 C-0.93423645 3.98968256 -1.04449911 3.13349732 0 0 Z " fill="#CDB499" transform="translate(55,196)"/>
<path d="M0 0 C1.125 1.625 1.125 1.625 2 4 C1.1026706 7.99719461 -0.03618652 10.24847068 -3 13 C-2.88557539 11.39504433 -2.75805306 9.79101881 -2.625 8.1875 C-2.55539063 7.29417969 -2.48578125 6.40085937 -2.4140625 5.48046875 C-2 3 -2 3 0 0 Z " fill="#976E4B" transform="translate(21,59)"/>
<path d="M0 0 C0.66 0 1.32 0 2 0 C1.731875 0.78375 1.46375 1.5675 1.1875 2.375 C-0.29233521 6.89239169 -1.64902274 11.44270338 -3 16 C-3.33 16 -3.66 16 -4 16 C-4.25153688 9.71157812 -3.51233939 5.26850908 0 0 Z " fill="#F6E9DB" transform="translate(62,24)"/>
<path d="M0 0 C3.9341561 5.90123415 4.27522305 11.11942374 4 18 C3.67 18 3.34 18 3 18 C2.67 16.35 2.34 14.7 2 13 C1.67 13 1.34 13 1 13 C0.67 8.71 0.34 4.42 0 0 Z " fill="#936F4D" transform="translate(142,31)"/>
<path d="M0 0 C1.32 0.33 2.64 0.66 4 1 C2.824375 2.546875 2.824375 2.546875 1.625 4.125 C-0.64396852 7.28098738 -1.98535871 10.21815519 -3 14 C-4.41687119 9.74938644 -3.19320039 7.28148375 -2 3 C-1.34 3 -0.68 3 0 3 C0 2.01 0 1.02 0 0 Z " fill="#845D3A" transform="translate(76,28)"/>
<path d="M0 0 C2.475 0.495 2.475 0.495 5 1 C5 1.66 5 2.32 5 3 C5.639375 3.185625 6.27875 3.37125 6.9375 3.5625 C9 5 9 5 9.75 8.625 C9.87375 10.295625 9.87375 10.295625 10 12 C9.443125 11.278125 8.88625 10.55625 8.3125 9.8125 C6.02680364 6.93981825 6.02680364 6.93981825 3.3125 4.3125 C1 2 1 2 0 0 Z " fill="#855C37" transform="translate(120,25)"/>
<path d="M0 0 C0.33 0 0.66 0 1 0 C1.04898437 0.79664063 1.09796875 1.59328125 1.1484375 2.4140625 C1.70029395 10.38157314 1.70029395 10.38157314 4 18 C3.01 18 2.02 18 1 18 C-0.59412284 14.81175432 -0.10174735 11.37103338 -0.0625 7.875 C-0.05798828 7.12089844 -0.05347656 6.36679688 -0.04882812 5.58984375 C-0.03703499 3.72652873 -0.01909942 1.86325445 0 0 Z " fill="#F5E7DA" transform="translate(2,192)"/>
<path d="M0 0 C-1.1875 1.5 -1.1875 1.5 -3 3 C-5.6875 3.1875 -5.6875 3.1875 -8 3 C-8 3.99 -8 4.98 -8 6 C-10.97 5.505 -10.97 5.505 -14 5 C-11.75043698 2.75043698 -9.93676737 1.99489035 -7 0.8125 C-6.113125 0.44769531 -5.22625 0.08289063 -4.3125 -0.29296875 C-2 -1 -2 -1 0 0 Z " fill="#E4CBB1" transform="translate(116,124)"/>
<path d="M0 0 C1.3921875 0.0928125 1.3921875 0.0928125 2.8125 0.1875 C2.8125 0.5175 2.8125 0.8475 2.8125 1.1875 C0.5025 1.5175 -1.8075 1.8475 -4.1875 2.1875 C-4.5175 4.8275 -4.8475 7.4675 -5.1875 10.1875 C-7.68787734 8.01325883 -8.62378586 6.45704202 -9.1875 3.1875 C-8.1975 3.1875 -7.2075 3.1875 -6.1875 3.1875 C-5.754375 2.6925 -5.32125 2.1975 -4.875 1.6875 C-3.1875 0.1875 -3.1875 0.1875 0 0 Z " fill="#98693F" transform="translate(57.1875,194.8125)"/>
<path d="M0 0 C0.33 0 0.66 0 1 0 C1.33 2.31 1.66 4.62 2 7 C1.01 7 0.02 7 -1 7 C-1.66 9.31 -2.32 11.62 -3 14 C-3.66 14 -4.32 14 -5 14 C-4.54857225 12.22739369 -4.08859477 10.4569632 -3.625 8.6875 C-3.36976563 7.70136719 -3.11453125 6.71523437 -2.8515625 5.69921875 C-2 3 -2 3 0 0 Z " fill="#E4CDB4" transform="translate(133,96)"/>
<path d="M0 0 C2.0625 0.4375 2.0625 0.4375 4 1 C2.87548273 3.9719385 1.77706209 6.33440687 0 9 C-1 8 -1 8 -1.125 4.5 C-1 1 -1 1 0 0 Z " fill="#8B592A" transform="translate(130,93)"/>
<path d="M0 0 C1.32 0.66 2.64 1.32 4 2 C3.0925 2.598125 2.185 3.19625 1.25 3.8125 C-1.22901481 5.48106766 -3.63317911 7.17936855 -6 9 C-6 7.68 -6 6.36 -6 5 C-5.01 5 -4.02 5 -3 5 C-3 4.01 -3 3.02 -3 2 C-2.01 1.34 -1.02 0.68 0 0 Z " fill="#F6EADB" transform="translate(76,9)"/>
<path d="M0 0 C0 0.66 0 1.32 0 2 C-1.58086048 2.36504603 -3.16483907 2.71660506 -4.75 3.0625 C-5.63171875 3.25972656 -6.5134375 3.45695313 -7.421875 3.66015625 C-9.98679028 3.99825872 -11.57091639 3.81158635 -14 3 C-4.58997722 -0.44419134 -4.58997722 -0.44419134 0 0 Z " fill="#8B6545" transform="translate(96,6)"/>
<path d="M0 0 C1.32 0 2.64 0 4 0 C4 0.99 4 1.98 4 3 C3.34 3 2.68 3 2 3 C2 3.66 2 4.32 2 5 C0.02 5 -1.96 5 -4 5 C-2.25 2.5 -2.25 2.5 0 0 Z " fill="#804B1D" transform="translate(84,200)"/>
<path d="M0 0 C0.33 0 0.66 0 1 0 C1.91657981 5.38490641 2.11138159 10.54230189 2 16 C1.01 15.34 0.02 14.68 -1 14 C-1.32351874 9.1472189 -0.9560073 4.78003652 0 0 Z " fill="#9E7856" transform="translate(7,158)"/>
<path d="M0 0 C0.66 1.32 1.32 2.64 2 4 C1.34 4.66 0.68 5.32 0 6 C-0.39764263 7.98821313 -0.73775349 9.98944339 -1 12 C-1.99 12 -2.98 12 -4 12 C-4 10.68 -4 9.36 -4 8 C-3.34 8 -2.68 8 -2 8 C-1.7834375 6.576875 -1.7834375 6.576875 -1.5625 5.125 C-1 2 -1 2 0 0 Z " fill="#A57A55" transform="translate(136,148)"/>
<path d="M0 0 C0.66 0 1.32 0 2 0 C1.42365861 4.75481646 -0.55068521 7.97048212 -3 12 C-3.88336837 9.5332355 -4.1312406 8.36140628 -3.22265625 5.859375 C-2.83980469 5.16328125 -2.45695312 4.4671875 -2.0625 3.75 C-1.68222656 3.04359375 -1.30195312 2.3371875 -0.91015625 1.609375 C-0.60980469 1.07828125 -0.30945313 0.5471875 0 0 Z " fill="#835A37" transform="translate(128,103)"/>
<path d="M0 0 C0 0.66 0 1.32 0 2 C-0.99 2 -1.98 2 -3 2 C-3 2.99 -3 3.98 -3 5 C-6 7 -6 7 -8.1875 6.625 C-8.785625 6.41875 -9.38375 6.2125 -10 6 C-8.71283353 4.99421411 -7.42011342 3.99553202 -6.125 3 C-5.40570313 2.443125 -4.68640625 1.88625 -3.9453125 1.3125 C-2 0 -2 0 0 0 Z " fill="#F1E2D1" transform="translate(90,22)"/>
<path d="M0 0 C0.99 0.33 1.98 0.66 3 1 C0.3765992 3.91488977 -2.71816394 5.88503898 -6 8 C-6.66 7.67 -7.32 7.34 -8 7 C-6.74057614 5.80040625 -5.46704714 4.61560557 -4.1875 3.4375 C-3.12595703 2.44556641 -3.12595703 2.44556641 -2.04296875 1.43359375 C-1.36878906 0.96050781 -0.69460937 0.48742187 0 0 Z " fill="#855E3D" transform="translate(150,133)"/>
<path d="M0 0 C0.99 0.33 1.98 0.66 3 1 C2.02501855 2.5027237 1.04490611 4.00211963 0.0625 5.5 C-0.48277344 6.3353125 -1.02804688 7.170625 -1.58984375 8.03125 C-2.05519531 8.6809375 -2.52054688 9.330625 -3 10 C-3.33 10 -3.66 10 -4 10 C-3.67 7.69 -3.34 5.38 -3 3 C-2.01 2.67 -1.02 2.34 0 2 C0 1.34 0 0.68 0 0 Z " fill="#F3E6D6" transform="translate(139,140)"/>
<path d="M0 0 C2.64 0.33 5.28 0.66 8 1 C8 1.66 8 2.32 8 3 C8.99 2.67 9.98 2.34 11 2 C11 3.32 11 4.64 11 6 C8.525 5.01 8.525 5.01 6 4 C6 3.34 6 2.68 6 2 C3.03 1.505 3.03 1.505 0 1 C0 0.67 0 0.34 0 0 Z " fill="#E9DBC8" transform="translate(108,130)"/>
<path d="M0 0 C3.3 1.98 6.6 3.96 10 6 C5.82412255 7.39195915 3.86525224 5.82323219 0 4 C0 2.68 0 1.36 0 0 Z " fill="#F2E5D6" transform="translate(145,119)"/>
<path d="M0 0 C0.66 0.99 1.32 1.98 2 3 C0.3125 5.5 0.3125 5.5 -2 8 C-4.75 8.3125 -4.75 8.3125 -7 8 C-7 7.34 -7 6.68 -7 6 C-5.02 5.67 -3.04 5.34 -1 5 C-0.67 3.35 -0.34 1.7 0 0 Z " fill="#E3CBB1" transform="translate(91,208)"/>
<path d="M0 0 C0.99 0 1.98 0 3 0 C3 2.64 3 5.28 3 8 C1.68 7.34 0.36 6.68 -1 6 C-1.042721 4.33388095 -1.04063832 2.66617115 -1 1 C-0.67 0.67 -0.34 0.34 0 0 Z " fill="#92643A" transform="translate(67,199)"/>
<path d="M0 0 C-0.33 0.99 -0.66 1.98 -1 3 C-2.65 2.67 -4.3 2.34 -6 2 C-6.99 3.485 -6.99 3.485 -8 5 C-8 4.01 -8 3.02 -8 2 C-8.66 1.67 -9.32 1.34 -10 1 C-6.42181037 -1.33958553 -4.07775191 -0.9267618 0 0 Z " fill="#F1DFC9" transform="translate(52,196)"/>
<path d="M0 0 C0.66 0 1.32 0 2 0 C2 0.66 2 1.32 2 2 C2.99 1.67 3.98 1.34 5 1 C4.67 2.98 4.34 4.96 4 7 C3.01 6.67 2.02 6.34 1 6 C0.67 4.02 0.34 2.04 0 0 Z " fill="#F1DFCC" transform="translate(130,149)"/>
<path d="M0 0 C2.25245881 2.68841859 3.88213958 4.64641875 5 8 C4.01 8.495 4.01 8.495 3 9 C1.5 7.875 1.5 7.875 0 6 C-0.1875 2.8125 -0.1875 2.8125 0 0 Z " fill="#EFE2D5" transform="translate(137,108)"/>
<path d="M0 0 C-0.33 0.99 -0.66 1.98 -1 3 C-2.98 3 -4.96 3 -7 3 C-6.67 2.01 -6.34 1.02 -6 0 C-3 -1 -3 -1 0 0 Z " fill="#885124" transform="translate(193,213)"/>
<path d="M0 0 C2.64 0 5.28 0 8 0 C8 0.66 8 1.32 8 2 C8.66 2 9.32 2 10 2 C10 2.99 10 3.98 10 5 C7 4 7 4 5 2 C2.42938689 1.35232207 2.42938689 1.35232207 0 1 C0 0.67 0 0.34 0 0 Z " fill="#94663C" transform="translate(155,125)"/>
<path d="M0 0 C0.99 0.33 1.98 0.66 3 1 C2.38125 1.7425 1.7625 2.485 1.125 3.25 C-0.60437281 5.48801188 -1.86106661 7.43739987 -3 10 C-3.36923077 3.47692308 -3.36923077 3.47692308 -1.5 1.0625 C-1.005 0.711875 -0.51 0.36125 0 0 Z " fill="#F8ECDD" transform="translate(21,56)"/>
<path d="M0 0 C0.33 0 0.66 0 1 0 C1.33 3.96 1.66 7.92 2 12 C1.01 11.67 0.02 11.34 -1 11 C-0.67 7.37 -0.34 3.74 0 0 Z " fill="#7D4E25" transform="translate(144,42)"/>
<path d="M0 0 C0.99 0.33 1.98 0.66 3 1 C3 1.66 3 2.32 3 3 C0.03 3.66 -2.94 4.32 -6 5 C-2.25 1.125 -2.25 1.125 0 0 Z " fill="#956B47" transform="translate(80,10)"/>
<path d="M0 0 C0.33 0 0.66 0 1 0 C1 1.98 1 3.96 1 6 C-0.98 6.66 -2.96 7.32 -5 8 C-4.19185349 6.66402348 -3.37836819 5.331275 -2.5625 4 C-2.11003906 3.2575 -1.65757812 2.515 -1.19140625 1.75 C-0.79824219 1.1725 -0.40507812 0.595 0 0 Z " fill="#E5D1BB" transform="translate(199,206)"/>
<path d="M0 0 C0.99 0.495 0.99 0.495 2 1 C2 1.66 2 2.32 2 3 C2.66 3 3.32 3 4 3 C3.34 4.65 2.68 6.3 2 8 C0 6 0 6 -0.125 2.875 C-0.08375 1.92625 -0.0425 0.9775 0 0 Z " fill="#FCF3E5" transform="translate(91,202)"/>
<path d="M0 0 C3 2 3 2 3.6875 5.125 C3.8421875 6.548125 3.8421875 6.548125 4 8 C2.68 7.34 1.36 6.68 0 6 C0 4.02 0 2.04 0 0 Z " fill="#916746" transform="translate(127,146)"/>
<path d="M0 0 C0.33 0.99 0.66 1.98 1 3 C1.66 3.33 2.32 3.66 3 4 C2.01 5.485 2.01 5.485 1 7 C0.34 7 -0.32 7 -1 7 C-1.33 7.99 -1.66 8.98 -2 10 C-1.125 2.25 -1.125 2.25 0 0 Z " fill="#916949" transform="translate(61,30)"/>
<path d="M0 0 C2.97 0 5.94 0 9 0 C7.515 1.485 7.515 1.485 6 3 C2.8125 2.6875 2.8125 2.6875 0 2 C0 1.34 0 0.68 0 0 Z " fill="#FEF9EC" transform="translate(78,196)"/>
<path d="M0 0 C5.53846154 -0.36923077 5.53846154 -0.36923077 7.875 1.5 C8.24625 1.995 8.6175 2.49 9 3 C6.69 3 4.38 3 2 3 C2 2.34 2 1.68 2 1 C1.34 0.67 0.68 0.34 0 0 Z " fill="#7C4B1F" transform="translate(152,122)"/>
<path d="M0 0 C2.31 0.66 4.62 1.32 7 2 C7 2.66 7 3.32 7 4 C4.69 3.67 2.38 3.34 0 3 C0 2.01 0 1.02 0 0 Z " fill="#7E4E25" transform="translate(102,129)"/>
<path d="M0 0 C1.32 0.66 2.64 1.32 4 2 C1.64561267 3.42944945 0.51967567 4.08661261 -2.25 3.625 C-2.8275 3.41875 -3.405 3.2125 -4 3 C-2.68 2.01 -1.36 1.02 0 0 Z " fill="#8D6540" transform="translate(26,55)"/>
<path d="M0 0 C2.5 1.3125 2.5 1.3125 5 3 C5 3.99 5 4.98 5 6 C2.5 4.6875 2.5 4.6875 0 3 C0 2.01 0 1.02 0 0 Z " fill="#EBDCCA" transform="translate(120,26)"/>
</svg>
